<svg width="761" height="823" viewBox="0 0 761 823" fill="none" xmlns="http://www.w3.org/2000/svg">
<path opacity="0.2" d="M31.9376 445.992C183.252 -147.331 195.862 -147.331 69.7663 445.992C-17.0997 670.137 -4.49009 670.137 107.595 445.992C258.91 221.848 271.519 221.848 145.424 445.992C-59.0183 948.669 -46.4087 948.669 183.252 445.992C334.567 -56.6842 347.177 -56.6842 221.081 445.992C97.6727 927.244 110.282 927.244 258.91 445.992C410.225 -35.2586 422.834 -35.2586 296.739 445.992C203.03 680.026 215.64 680.026 334.567 445.992C485.882 211.959 498.492 211.959 372.396 445.992C260.508 627.286 273.118 627.286 410.225 445.992C561.539 264.699 574.149 264.699 448.053 445.992C221.081 917.355 233.691 917.355 485.882 445.992C637.197 -25.3699 649.806 -25.3699 523.711 445.992C402.024 884.393 414.634 884.393 561.539 445.992C712.854 7.59249 725.464 7.59249 599.368 445.992C471.139 899.226 483.749 899.226 637.197 445.992C788.512 -7.24061 801.121 -7.24061 675.026 445.992" stroke="white" stroke-width="2"/>
</svg>
