<svg width="1391" height="416" viewBox="0 0 1391 416" fill="none" xmlns="http://www.w3.org/2000/svg">
<path opacity="0.2" d="M64.7387 208C304.068 -43.6828 327.531 -43.6828 135.13 208C-64.708 479.137 -41.2444 479.137 205.52 208C444.849 -63.1366 468.313 -63.1366 275.911 208C138.512 324.115 161.976 324.115 346.302 208C585.631 91.8855 609.095 91.8855 416.693 208C217.744 332.018 241.207 332.018 487.084 208C726.413 83.9824 749.877 83.9824 557.475 208C275.003 448.132 298.466 448.132 627.866 208C867.195 -32.1322 890.658 -32.1322 698.257 208C491.486 484 514.949 484 768.648 208C1007.98 -68 1031.44 -68 839.038 208C684.566 375.181 708.03 375.181 909.429 208C1148.76 40.8194 1172.22 40.8194 979.82 208C725.85 482.176 749.313 482.176 1050.21 208C1289.54 -66.1762 1313 -66.1762 1120.6 208C965.315 376.396 988.779 376.396 1190.99 208C1430.32 39.6035 1453.79 39.6035 1261.38 208" stroke="white" stroke-width="2"/>
</svg>
