<svg width="1101" height="614" viewBox="0 0 1101 614" fill="none" xmlns="http://www.w3.org/2000/svg">
<path opacity="0.2" d="M80.7879 307C300.295 29.2128 320.25 29.2128 140.654 307C-63.7314 661.468 -43.7762 661.468 200.519 307C420.026 -47.468 439.982 -47.468 260.385 307C94.3494 607.936 114.305 607.936 320.25 307C539.758 6.06384 559.713 6.06384 380.116 307C203.973 596.362 223.928 596.362 439.982 307C659.489 17.6383 679.444 17.6383 499.847 307C357.068 477.723 377.023 477.723 559.713 307C779.22 136.277 799.175 136.277 619.578 307C315.177 715 335.132 715 679.444 307C898.951 -101 918.906 -101 739.31 307C603.657 515.34 623.612 515.34 799.175 307C1018.68 98.6596 1038.64 98.6596 859.041 307C653.876 574.66 673.832 574.66 918.906 307C1138.41 39.3404 1158.37 39.3404 978.772 307" stroke="white" stroke-width="2"/>
</svg>
