<svg width="837" height="787" viewBox="0 0 837 787" fill="none" xmlns="http://www.w3.org/2000/svg">
<path opacity="0.2" d="M133.87 145.301C367.302 95.8754 377.901 105.118 165.665 173.031C-59.6176 249.121 -49.0194 258.364 197.459 200.76C440.579 140.226 451.177 149.469 229.254 228.489C109.371 240.662 119.969 249.905 261.049 256.218C426.972 284.199 437.57 293.442 292.843 283.948C141.223 276.386 151.821 285.629 324.638 311.677C494.497 335.145 505.095 344.388 356.433 339.406C109.265 365.241 119.863 374.485 388.227 367.135C615.908 324.305 626.506 333.548 420.022 394.865C189.186 471.001 199.785 480.244 451.817 422.594C697.359 359.284 707.957 368.527 483.611 450.323C330.587 484.928 341.185 494.171 515.406 478.053C706.759 476.876 717.357 486.119 547.201 505.782C295.954 562.283 306.552 571.526 578.995 533.511C823.629 471.242 834.227 480.485 610.79 561.24C456.793 596.219 467.391 605.462 642.585 588.97C834.543 587.098 845.141 596.342 674.379 616.699" stroke="#C35932" stroke-width="2"/>
</svg>
