<svg width="1600" height="236" viewBox="0 0 1600 236" fill="none" xmlns="http://www.w3.org/2000/svg">
<path fill-rule="evenodd" clip-rule="evenodd" d="M0 236L17 214.148C33 192.296 67 148.593 100 139.852C133 131.111 167 157.333 200 179.185C233 201.037 267 218.519 300 201.037C333 183.556 367 131.111 400 122.37C433 113.63 467 148.593 500 170.444C533 192.296 567 201.037 600 174.815C633 148.593 667 87.4074 700 65.5556C733 43.7037 767 61.1852 800 61.1852C833 61.1852 867 43.7037 900 48.0741C933 52.4444 967 78.6667 1000 83.037C1033 87.4074 1067 69.9259 1100 61.1852C1133 52.4444 1167 52.4444 1200 74.2963C1233 96.1481 1267 139.852 1300 170.444C1333 201.037 1367 218.519 1400 205.407C1433 192.296 1467 148.593 1500 135.481C1533 122.37 1567 139.852 1583 148.593L1600 157.333V0H1583C1567 0 1533 0 1500 0C1467 0 1433 0 1400 0C1367 0 1333 0 1300 0C1267 0 1233 0 1200 0C1167 0 1133 0 1100 0C1067 0 1033 0 1000 0C967 0 933 0 900 0C867 0 833 0 800 0C767 0 733 0 700 0C667 0 633 0 600 0C567 0 533 0 500 0C467 0 433 0 400 0C367 0 333 0 300 0C267 0 233 0 200 0C167 0 133 0 100 0C67 0 33 0 17 0H0V236Z" fill="#C35932"/>
</svg>
