<svg width="1600" height="277" viewBox="0 0 1600 277" fill="none" xmlns="http://www.w3.org/2000/svg">
<path fill-rule="evenodd" clip-rule="evenodd" d="M0 277L16 256.481C32 235.963 62.6667 194.926 94.6667 194.926C125.333 194.926 157.333 235.963 188 235.963C220 235.963 250.667 194.926 282.667 179.537C313.333 164.148 345.333 174.407 376 164.148C408 153.889 438.667 123.111 470.667 117.981C501.333 112.852 533.333 133.37 565.333 153.889C596 174.407 628 194.926 658.667 210.315C690.667 225.704 721.333 235.963 753.333 235.963C784 235.963 816 225.704 846.667 225.704C878.667 225.704 909.333 235.963 941.333 205.185C972 174.407 1004 102.593 1034.67 92.3333C1066.67 82.0741 1098.67 133.37 1129.33 133.37C1161.33 133.37 1192 82.0741 1224 97.463C1254.67 112.852 1286.67 194.926 1317.33 215.444C1349.33 235.963 1380 194.926 1412 194.926C1442.67 194.926 1474.67 235.963 1505.33 220.574C1537.33 205.185 1568 133.37 1584 97.463L1600 61.5556V0H1584C1568 0 1537.33 0 1505.33 0C1474.67 0 1442.67 0 1412 0C1380 0 1349.33 0 1317.33 0C1286.67 0 1254.67 0 1224 0C1192 0 1161.33 0 1129.33 0C1098.67 0 1066.67 0 1034.67 0C1004 0 972 0 941.333 0C909.333 0 878.667 0 846.667 0C816 0 784 0 753.333 0C721.333 0 690.667 0 658.667 0C628 0 596 0 565.333 0C533.333 0 501.333 0 470.667 0C438.667 0 408 0 376 0C345.333 0 313.333 0 282.667 0C250.667 0 220 0 188 0C157.333 0 125.333 0 94.6667 0C62.6667 0 32 0 16 0H0V277Z" fill="#C35932"/>
</svg>
